<svg width="24" height="24" viewBox="0 0 24 24" xmlns="http://www.w3.org/2000/svg">
  <!-- Edgar Allan Poe placeholder: Stylized raven (symbol from "The Raven") -->
  <path d="M12 2 C8 2, 5 5, 5 9 C5 12, 7 14, 9 15 L9 18 C9 20, 11 22, 12 22 C13 22, 15 20, 15 18 L15 15 C17 14, 19 12, 19 9 C19 5, 16 2, 12 2 Z" 
        fill="black" stroke="black" stroke-width="0.5"/>
  <!-- Beak -->
  <path d="M12 8 L8 10 L12 12 Z" fill="black"/>
  <!-- Wing detail -->
  <path d="M9 12 Q12 10, 15 12 Q12 14, 9 12" fill="none" stroke="white" stroke-width="0.5"/>
  <!-- Eye -->
  <circle cx="10" cy="9" r="1" fill="white"/>
</svg>
